<?xml version="1.0" encoding="UTF-8" standalone="no"?>
<!-- Created with Inkscape (http://www.inkscape.org/) -->

<svg
   xmlns:osb="http://www.openswatchbook.org/uri/2009/osb"
   xmlns:dc="http://purl.org/dc/elements/1.1/"
   xmlns:cc="http://creativecommons.org/ns#"
   xmlns:rdf="http://www.w3.org/1999/02/22-rdf-syntax-ns#"
   xmlns:svg="http://www.w3.org/2000/svg"
   xmlns="http://www.w3.org/2000/svg"
   xmlns:sodipodi="http://sodipodi.sourceforge.net/DTD/sodipodi-0.dtd"
   xmlns:inkscape="http://www.inkscape.org/namespaces/inkscape"
   width="200mm"
   height="200mm"
   viewBox="0 0 200 200"
   version="1.1"
   id="svg3735"
   sodipodi:docname="grab.svg"
   inkscape:export-filename="C:\Users\RobotJu\Documents\GitHub\BackUp\Images\release.png"
   inkscape:export-xdpi="95"
   inkscape:export-ydpi="95"
   inkscape:version="0.92.2 (5c3e80d, 2017-08-06)">
  <defs
     id="defs3729">
    <linearGradient
       id="linearGradient6159"
       osb:paint="solid">
      <stop
         style="stop-color:#000000;stop-opacity:1;"
         offset="0"
         id="stop6157" />
    </linearGradient>
  </defs>
  <sodipodi:namedview
     id="base"
     pagecolor="#ffffff"
     bordercolor="#666666"
     borderopacity="1.0"
     inkscape:pageopacity="0.0"
     inkscape:pageshadow="2"
     inkscape:zoom="0.7"
     inkscape:cx="45.353155"
     inkscape:cy="345.34346"
     inkscape:document-units="mm"
     inkscape:current-layer="layer3"
     showgrid="true"
     inkscape:measure-start="0,0"
     inkscape:measure-end="0,0"
     showguides="false"
     inkscape:window-width="1600"
     inkscape:window-height="837"
     inkscape:window-x="-8"
     inkscape:window-y="-8"
     inkscape:window-maximized="1">
    <inkscape:grid
       type="xygrid"
       id="grid3835" />
  </sodipodi:namedview>
  <metadata
     id="metadata3732">
    <rdf:RDF>
      <cc:Work
         rdf:about="">
        <dc:format>image/svg+xml</dc:format>
        <dc:type
           rdf:resource="http://purl.org/dc/dcmitype/StillImage" />
        <dc:title />
      </cc:Work>
    </rdf:RDF>
  </metadata>
  <g
     inkscape:label="Calque 1"
     inkscape:groupmode="layer"
     id="layer1"
     transform="translate(0,-97)"
     style="display:inline" />
  <g
     inkscape:groupmode="layer"
     id="layer2"
     inkscape:label="Calque 2"
     style="display:inline">
    <rect
       style="opacity:1;fill:#f40000;fill-opacity:1;stroke:#000000;stroke-width:8;stroke-linecap:square;stroke-linejoin:miter;stroke-miterlimit:4;stroke-dasharray:none;stroke-opacity:1;paint-order:markers fill stroke"
       id="rect4690"
       width="191.99997"
       height="191.99997"
       x="4.0000153"
       y="4.0000153"
       inkscape:export-xdpi="95.545555"
       inkscape:export-ydpi="95.545555" />
  </g>
  <g
     inkscape:groupmode="layer"
     id="layer3"
     inkscape:label="Calque 3"
     style="display:inline;opacity:0.98000004">
    <path
       style="display:inline;opacity:1;fill:none;fill-opacity:0.99607843;stroke:#000000;stroke-width:8;stroke-linecap:round;stroke-linejoin:round;stroke-miterlimit:4;stroke-dasharray:none;stroke-opacity:0.49019608"
       d="m 60.97129,81.898834 c -7.59897,6.8845 -13.22916,14.55208 -15.875,22.489576 -1.31096,5.02758 -6.61458,14.5521 0,22.4896 l 35.71875,35.71875 c 15.87501,13.22916 41.01044,11.90625 58.20835,6.61458 14.55208,-5.29167 26.45833,-10.58334 26.45833,-27.78125 l 2.64584,-68.791676 c 0,-13.22917 -2.64584,-17.19792 -11.90625,-17.19792 -11.90625,0 -14.55209,5.29167 -14.55209,19.84375 0,-14.55208 0,-29.104161 -13.22916,-29.104161 -17.10121,0.11241 -13.22917,17.197911 -13.22917,30.427081 0.005,-25.130701 1.32292,-39.687502 -13.22918,-39.687502 -21.16666,0 -10.58333,21.166672 -13.22916,39.687502 0.50799,-17.96452 0,-30.427081 -13.22917,-30.427081 -27.78125,0 -10.58333,34.395831 -13.22917,56.885407 0.57224,-6.714376 -0.3519,-13.932626 -1.32292,-21.166656 z"
       id="path6639-4"
       inkscape:connector-curvature="0"
       sodipodi:nodetypes="cccccccccccccccc"
       inkscape:export-filename="C:\Users\RobotJu\Documents\GitHub\BackUp\Images\grab.png"
       inkscape:export-xdpi="96"
       inkscape:export-ydpi="96" />
  </g>
  <g
     inkscape:groupmode="layer"
     id="layer6"
     inkscape:label="Calque 4">
    <path
       style="display:inline;opacity:1;fill:#ffffff;fill-opacity:0.99607843;stroke:#000000;stroke-width:8;stroke-linecap:round;stroke-linejoin:round;stroke-miterlimit:4;stroke-dasharray:none;stroke-opacity:1"
       d="m 55.971011,76.899001 c -7.59897,6.8845 -13.22916,14.55208 -15.875,22.48958 -1.31096,5.027579 -6.61458,14.552099 0,22.489599 l 35.718753,35.71875 c 15.87501,13.22916 41.010436,11.90625 58.208346,6.61458 14.55208,-5.29167 26.45833,-10.58334 26.45833,-27.78125 l 2.64584,-68.791678 c 0,-13.229169 -2.64584,-17.19792 -11.90625,-17.19792 -11.90625,0 -14.55209,5.29167 -14.55209,19.843751 0,-14.552081 0,-29.104161 -13.22916,-29.104161 -17.10121,0.11241 -13.22917,17.197911 -13.22917,30.42708 0.005,-25.1307 1.32292,-39.687501 -13.229176,-39.687501 -21.16666,0 -10.58333,21.166671 -13.22916,39.687501 0.50799,-17.96452 0,-30.42708 -13.22917,-30.42708 -27.781253,0 -10.58333,34.39583 -13.22917,56.885409 0.57224,-6.71438 -0.3519,-13.93263 -1.322923,-21.16666 z"
       id="path6639"
       inkscape:connector-curvature="0"
       sodipodi:nodetypes="cccccccccccccccc"
       inkscape:export-filename="C:\Users\RobotJu\Documents\GitHub\BackUp\Images\grab.png"
       inkscape:export-xdpi="96"
       inkscape:export-ydpi="96" />
  </g>
</svg>
